<svg version="1.1" id="Layer_1" xmlns="http://www.w3.org/2000/svg" xmlns:xlink="http://www.w3.org/1999/xlink" x="0px" y="0px" viewBox="0 0 400 400" style="enable-background:new 0 0 400 400;" xml:space="preserve"><style type="text/css">
	.st0{fill:#FFFFFF;}
</style><g><path class="st0" d="M260.5,8.2c35.7,0,71.3,0,107,0c4.6,0,9,0.6,12.8,3.4c4.9,3.5,7.6,8.3,8,14.3c1.3,21.1,1.1,42.2-0.7,63.2
		c-1.2,14.9-2.6,29.8-4.7,44.5c-6.2,43.4-17.8,85.4-36.8,125c-15.2,31.6-34.7,60.2-59.8,84.8c-23,22.4-49.3,39.9-78.7,52.8
		c-5.5,2.4-10.9,2.4-16.4,0c-35.7-15.6-66.6-38.1-92.3-67.4C70.1,296,50.3,258.3,36.2,217.3c-8.6-25-14.7-50.5-19-76.5
		c-3.6-22.1-5.9-44.3-6.9-66.6c-0.8-16.4-0.7-32.9,0.2-49.3c0.8-13.5,15-21.6,26.9-14.9c6.6,3.7,12.9,7.7,19.4,11.5
		c18,10.7,36,21.5,54,32.2c6.9,4.1,13.8,8.3,20.6,12.4c0.4,0.3,0.9,0.5,1.3,0.8c2.5,1.3,2.7,1.2,2.7-1.6c0-12.9,0-25.9,0-38.8
		c0-1.6,0-3.3,0.1-4.9c0.6-6.8,6.5-12.7,13.3-13.2c1.5-0.1,3-0.1,4.5-0.1C189.1,8.2,224.8,8.2,260.5,8.2z M173.3,140.7
		c0,30.1,0,60.3,0,90.4c0,1.2,0.2,2.5,0.3,3.7c1.1-0.5,2.3-0.9,3.3-1.6c24-14.3,48.1-28.7,72.1-43.1c2.2-1.3,4.3-2.7,6.5-3.9
		c1.7-0.9,1.1-1.5-0.1-2.2c-2.8-1.6-5.6-3.3-8.4-5c-16.4-9.8-32.7-19.6-49.1-29.3c-2.8-1.7-4.8-3.7-4.8-7.1c0-11.2-0.1-22.4,0-33.5
		c0-3.8,2.1-4.8,5.5-3c0.7,0.4,1.3,0.8,1.9,1.2c21.4,12.8,42.9,25.6,64.3,38.5c9.8,5.9,19.6,11.7,29.4,17.6
		c10.5,6.5,14.9,18.5,11,30.1c-2.2,6.6-6.8,11.2-12.8,14.7C264.2,225,236,242,207.7,258.9c-11.1,6.6-22.2,13.3-33.3,19.9
		c-16.2,9.6-35.4-0.7-38.4-16.6c-0.5-2.6-0.5-5.2-0.5-7.9c0-24.7,0-49.5,0-74.2c0-21.6,0-43.2,0-64.8c0-2.5-0.6-4.1-3-5.4
		c-7.2-3.8-14.3-7.7-21.3-11.9c-14.6-8.6-29.1-17.4-43.6-26.2c-5.6-3.4-11.2-6.7-16.8-10c-0.8-0.5-1.8-0.7-2.7-1
		c-0.1,1-0.2,2-0.2,2.9c0.1,2.1,0.3,4.3,0.3,6.4c0.6,18.2,2.3,36.3,4.8,54.4c3.3,23.1,8.2,45.9,15,68.2
		c9.7,31.8,22.9,61.9,41.9,89.2c22.4,32.3,50.9,57.6,86.2,75.2c2.4,1.2,4.3,1.1,6.6-0.1c33.7-16.8,61.5-40.6,83.6-71
		c18.5-25.4,31.8-53.4,41.7-83.1c7.6-22.9,13.1-46.3,16.7-70.1c2.4-16,4.3-32.1,5.2-48.3c0.4-7.5,0.8-15,1.1-22.6
		c0.2-4.4,0.2-8.8,0.2-13.2c0-2.8-0.1-2.8-3-2.9c-0.3,0-0.5,0-0.8,0c-56.8,0-113.5,0-170.3,0c-3.7,0-3.7,0-3.7,3.7
		c0,0.3,0,0.5,0,0.8C173.3,80.5,173.3,110.6,173.3,140.7z"></path></g></svg>